# xmcd
#
# Track frame offsets: 
#        150
#        24724
#        42517
#        61200
#        81983
#        100056
#        133445
#        154967
#        192965
#        213405
#        237340
#        261787
#        278805
#
# Disc length: 4114 seconds
#
# Revision: 0
# Processed by: cddbd v1.5.2PL0 Copyright (c) Steve Scherf et al.
# Submitted via: ExactAudioCopy v0.99pb1
#
DISCID=c110100d
DTITLE=Various Artist - Blues-2000
DYEAR=2000
DGENRE=Blues
TTITLE0=01 - Eric Clapton - My Father`s Eyes
TTITLE1=02 - Oscar Benton - Bensonhurst Blues
TTITLE2=03 - Gary Moore - Still Got The Blues
TTITLE3=04 - Creedence Clearwater Revival - I Put A Spell On You
TTITLE4=05 - Frankie Miller - Gealosy
TTITLE5=06 - Led Zeppelin - Since I've Been Loving You
TTITLE6=07 - Paul McCartney and Wings - Let Me Roll It
TTITLE7=08 - Livin` Blues - Blue Breeze
TTITLE8=09 - Joe Cocker - My Father`s Son
TTITLE9=10 - Kingdom Come - What Love Can Be
TTITLE10=11 - Chris Rea - And You My Love
TTITLE11=12 - Los Lobos - Someday
TTITLE12=13 - Tony Joe White - Close To The Truth
EXTD=
EXTT0=
EXTT1=
EXTT2=
EXTT3=
EXTT4=
EXTT5=
EXTT6=
EXTT7=
EXTT8=
EXTT9=
EXTT10=
EXTT11=
EXTT12=
PLAYORDER=
